<svg width="41" height="52" viewBox="0 0 41 52" fill="none" xmlns="http://www.w3.org/2000/svg">
<g clip-path="url(#clip0_1622_1402)">
<path d="M2.21153 2.77075L2.99995 7.82789H3.13153L4.16942 2.77075H6.45574L7.49363 7.82789H7.62521L8.41363 2.77075H10.0684L8.78205 9.17019H6.41679L5.37837 4.11357H5.24679L4.20837 9.17019H1.84311L0.554688 2.77075H2.21153Z" fill="#FD7740"/>
<path d="M15.2325 5.33854C15.1398 4.50051 14.5883 3.98487 13.7351 3.98487C12.8025 3.98487 12.2893 4.52634 12.184 5.33854H15.2325ZM13.7483 2.59091C15.6398 2.59091 16.9151 3.89394 16.9151 5.86657V6.47417H12.1704C12.2351 7.29877 12.9072 7.95856 13.8272 7.95856C14.7472 7.95856 15.2061 7.45532 15.4819 6.97689L16.8088 7.77669C16.4404 8.26752 15.6651 9.35046 13.8251 9.35046C11.8283 9.35046 10.4751 7.90586 10.4751 5.91772C10.4751 3.93011 11.8277 2.58936 13.7477 2.58936M20.3172 8.11304C21.3682 8.11304 22.0382 7.44241 22.0382 6.48657V6.31969L20.1725 6.60282C19.5804 6.69376 19.253 6.95157 19.253 7.36439C19.253 7.77669 19.5804 8.11304 20.3172 8.11304ZM20.843 2.59091C22.5514 2.59091 23.6672 3.53227 23.6672 5.13291V9.17014H22.0651V8.34554H21.9335C21.7225 8.71961 21.2098 9.35201 19.9361 9.35201C18.5961 9.35201 17.5967 8.66897 17.5967 7.45532C17.5967 6.24116 18.6219 5.68729 19.9882 5.48166L22.0388 5.17321V5.01821C22.0388 4.39872 21.6704 3.88309 20.7767 3.88309C19.8825 3.88309 19.4109 4.39872 19.2514 5.12206L17.6619 4.59351C18.1077 3.53589 19.133 2.59297 20.8414 2.59297" fill="#FD7740"/>
<path d="M25.061 0.139893H26.7158V9.17019H25.061V0.139893ZM27.5047 2.77076H29.1331V0.784693H30.79V2.77076H32.5779V4.08619H30.79V7.46623C30.79 7.72456 30.9216 7.85321 31.1584 7.85321H32.4205V9.16864H30.581C29.7131 9.16864 29.1358 8.60186 29.1358 7.72404V4.08723H27.5068V2.77024H27.5052L27.5047 2.77076ZM35.3358 0.139893V3.67389H35.4673C35.7173 3.18306 36.2558 2.66743 37.4516 2.66743C38.9768 2.66743 39.9873 3.76276 39.9873 5.35099V9.17019H38.3305V5.42953C38.3305 4.46078 37.8305 3.98493 36.9368 3.98493C35.9242 3.98493 35.3342 4.68036 35.3342 5.86869V9.17019H33.6773V0.139893H35.3358Z" fill="#FD7740"/>
</g>
<g clip-path="url(#clip1_1622_1402)">
<path d="M12.5286 19.4295C12.5008 20.5779 12.0183 21.6701 11.1843 22.4727C10.3502 23.2753 9.23076 23.7245 8.06507 23.7245C6.89938 23.7245 5.77992 23.2753 4.94588 22.4727C4.11184 21.6701 3.62937 20.5779 3.60158 19.4295C3.60174 18.263 4.07208 17.1443 4.90913 16.3195C5.74618 15.4947 6.88139 15.0314 8.06507 15.0314C8.65124 15.0311 9.23172 15.1447 9.77333 15.3656C10.3149 15.5866 10.8071 15.9105 11.2216 16.3189C11.6361 16.7274 11.9649 17.2123 12.1891 17.7461C12.4134 18.2798 12.5287 18.8518 12.5286 19.4295ZM0.553954 19.4295C0.553953 23.5179 3.91713 26.8304 8.0638 26.8304C12.2098 26.8304 15.5736 23.5179 15.5737 19.4295C15.5737 15.3417 12.2105 12.0286 8.0638 12.0286C3.91777 12.0286 0.553954 15.3417 0.553954 19.4295ZM3.72729 44.1094L3.72728 49.7834L0.765377 49.7834L0.765379 39.8126L2.78951 39.8126L6.35776 43.2253C6.56538 41.1692 8.29745 39.69 10.5508 39.69C13.493 39.69 15.5781 41.91 15.5781 44.9948C15.5781 47.8537 13.7006 50.0117 11.0498 50.197L11.0498 47.1547C11.8638 46.9908 12.5724 46.25 12.5724 44.9967C12.5724 43.744 11.6975 42.8173 10.4657 42.8173C8.71332 42.8173 8.10761 44.7921 8.71332 46.8682L6.7311 46.8682L3.72792 44.1132L3.72792 44.1094L3.72729 44.1094ZM10.4435 31.0965C9.19269 31.0965 8.23205 32.0626 8.23205 33.3178C8.23205 34.5717 9.19205 35.4765 10.4435 35.4765C11.6943 35.4765 12.6333 34.511 12.6333 33.2977C12.6333 32.0839 11.6733 31.0984 10.4435 31.0984M10.4651 28.1388C13.2606 28.1388 15.5756 30.482 15.5756 33.2996C15.5756 36.1166 13.2587 38.4605 10.4651 38.4605C9.50507 38.4605 8.19205 38.0894 6.91904 37.3092L0.76538 33.5468L0.765381 30.0722L5.62634 33.1138C5.60602 32.9911 5.60602 32.8679 5.60602 32.7434C5.60602 30.111 7.67142 28.1381 10.467 28.1381M20.1546 12.2338L26.1 20.6215L26.1 12.2338L29.1864 12.2338L29.1864 26.6252L26.601 26.6252L20.6137 18.2375L20.6137 26.6258L17.5248 26.6258L17.5248 12.2338L20.1546 12.2338ZM31.606 26.6258L40.5553 26.6258L40.5553 23.7062L34.693 23.7062L34.693 20.6646L39.9076 20.6646L39.9076 17.7438L34.693 17.7438L34.693 15.1546L40.5546 15.1546L40.5546 12.2351L31.606 12.2351L31.606 26.6258Z" fill="#1B1C1E"/>
</g>
<defs>
<clipPath id="clip0_1622_1402">
<rect width="40" height="51.6667" fill="white" transform="translate(0.554688 0.139893)"/>
</clipPath>
<clipPath id="clip1_1622_1402">
<rect width="40" height="38.1684" fill="white" transform="translate(0.554688 12.0286)"/>
</clipPath>
</defs>
</svg>
